<svg xmlns="http://www.w3.org/2000/svg" xmlns:xlink="http://www.w3.org/1999/xlink" width="70" height="66" viewBox="0 0 70 66"><defs><style>.a{fill:#fff;}.b{fill:#00af47;}.c{clip-path:url(#a);}</style><clipPath id="a"><rect class="a" width="34.423" height="32.082"/></clipPath></defs><g transform="translate(1680 -184)"><rect class="b" width="70" height="66" transform="translate(-1680 184)"/><g transform="translate(-1662 201)"><g class="c"><path class="a" d="M33.721,14.486,28.51,9.275V3.257a1.968,1.968,0,0,0-3.937,0V5.338L20.7,1.462a5.18,5.18,0,0,0-7.162,0L.5,14.486a1.968,1.968,0,0,0,2.783,2.783L16.319,4.245a1.158,1.158,0,0,1,1.6,0L30.938,17.269a2,2,0,0,0,1.4.581,1.963,1.963,0,0,0,1.4-.581,1.986,1.986,0,0,0-.009-2.783Zm0,0" transform="translate(0.068 -0.023)"/></g><path class="a" d="M68,88.786a.963.963,0,0,0-1.37,0L55.186,100.24a.964.964,0,0,0-.286.685v8.35a3.545,3.545,0,0,0,3.546,3.546h5.671v-8.775h6.4v8.775h5.671a3.545,3.545,0,0,0,3.546-3.546v-8.35a.964.964,0,0,0-.286-.685Zm0,0" transform="translate(-50.14 -80.826)"/></g></g></svg>