<svg xmlns="http://www.w3.org/2000/svg" width="297.5" height="72.4" viewBox="0 0 297.5 72.4"><defs><style>.a{fill:#00af47;}.b{fill:#0f1a2b;}</style></defs><g transform="translate(-571 -52)"><path class="a" d="M36.5,57.7H6.1V24.8h9.3v3.1l12.2-5.6L15.4,13.7v3.1H0l.1,8V64.9a6.7,6.7,0,0,0,6.7,6.7h29a6.7,6.7,0,0,0,6.7-6.7V57.6h-6ZM21.3,68.9a4.2,4.2,0,1,1,4.2-4.2A4.225,4.225,0,0,1,21.3,68.9Z" transform="translate(571 52)"/><path class="b" d="M35.8,0H6.8A6.7,6.7,0,0,0,.1,6.7V8.8H36.5V41.6l-9.8.1V38.5L14.5,45.6l12.2,7.1V49.6H42.5V6.7A6.7,6.7,0,0,0,35.8,0Z" transform="translate(571 52)"/><path class="b" d="M17.119-1.488a3.149,3.149,0,0,1-2.2,1.018,1.847,1.847,0,0,1-1.471-.656,7.957,7.957,0,0,0,5.115-7.559c0-4.8-3.78-8.284-8.94-8.284S.687-13.484.687-8.685A8.114,8.114,0,0,0,7.409-.628c2.852,2.988,4.595,3.87,7.4,3.87a5.845,5.845,0,0,0,4.617-2.014ZM9.627-12.646c1.969,0,3.553,1.494,3.553,3.961S11.6-4.725,9.627-4.725,6.074-6.218,6.074-8.685,7.658-12.646,9.627-12.646ZM28.1-.4c4.866,0,7.718-2.739,7.718-7.492v-8.714H30.563v8.555c0,2.422-.928,3.327-2.422,3.327S25.72-5.63,25.72-8.052v-8.555H20.378v8.714C20.378-3.14,23.23-.4,28.1-.4ZM43.509-4.793V-6.875h6.7v-3.848h-6.7v-1.856h7.627v-4.029H38.258V-.764H51.431V-4.793ZM62.974-.764h5.7L65.35-5.653a5.306,5.306,0,0,0,2.988-4.979c0-3.667-2.806-5.975-7.22-5.975H53.49V-.764h5.341V-4.747H60.28Zm-.023-9.868c0,1.154-.7,1.856-2.173,1.856H58.832v-3.712h1.946C62.249-12.488,62.951-11.786,62.951-10.632ZM78.658-.4c5.16,0,8.94-3.485,8.94-8.284s-3.78-8.284-8.94-8.284-8.94,3.485-8.94,8.284S73.5-.4,78.658-.4Zm0-4.323c-1.969,0-3.553-1.494-3.553-3.961s1.584-3.961,3.553-3.961,3.553,1.494,3.553,3.961S80.627-4.725,78.658-4.725ZM99.775-.764h5.341v-11.7h4.64v-4.142H95.135v4.142h4.64Zm20.845,0h5.7L123-5.653a5.306,5.306,0,0,0,2.988-4.979c0-3.667-2.806-5.975-7.22-5.975h-7.627V-.764h5.341V-4.747h1.449Zm-.023-9.868c0,1.154-.7,1.856-2.173,1.856h-1.946v-3.712h1.946C119.9-12.488,120.6-11.786,120.6-10.632ZM136.3-.4c5.16,0,8.94-3.485,8.94-8.284s-3.78-8.284-8.94-8.284-8.94,3.485-8.94,8.284S131.145-.4,136.3-.4Zm0-4.323c-1.969,0-3.553-1.494-3.553-3.961s1.584-3.961,3.553-3.961,3.553,1.494,3.553,3.961S138.274-4.725,136.3-4.725ZM155.385-.4a8.559,8.559,0,0,0,7.107-3.169l-3.372-3.01a4.28,4.28,0,0,1-3.463,1.856,3.611,3.611,0,0,1-3.712-3.961,3.611,3.611,0,0,1,3.712-3.961,4.28,4.28,0,0,1,3.463,1.856l3.372-3.01a8.559,8.559,0,0,0-7.107-3.169c-5.092,0-8.827,3.418-8.827,8.284S150.292-.4,155.385-.4Zm20.279-.362h5.522l-6.926-15.843H169.01L162.084-.764h5.432l1.064-2.761h6.02Zm-5.613-6.609,1.539-3.983,1.539,3.983ZM191.53-.764h5.7l-3.327-4.889a5.306,5.306,0,0,0,2.988-4.979c0-3.667-2.807-5.975-7.22-5.975h-7.627V-.764h5.341V-4.747h1.449Zm-.023-9.868c0,1.154-.7,1.856-2.173,1.856h-1.946v-3.712h1.946C190.805-12.488,191.507-11.786,191.507-10.632ZM205.7-.764h7.808c5.3,0,8.94-3.01,8.94-7.922s-3.644-7.922-8.94-7.922H205.7Zm5.341-4.164v-7.514h2.241a3.489,3.489,0,0,1,3.78,3.757,3.489,3.489,0,0,1-3.78,3.757Zm18.6.136V-6.875h6.7v-3.848h-6.7v-1.856h7.627v-4.029H224.393V-.764h13.172V-4.793Z" transform="translate(628.746 77.904)"/><g transform="translate(571 52)"><path class="a" d="M89.5,59.9c-1.3,7.5-6.8,12.5-16.6,12.5-11.7,0-17.4-7.9-17.4-18.3,0-10.1,5.6-18.8,17.9-18.8,10.5,0,15.3,6.1,16,12.3H79c-.5-2.6-2-4.9-5.9-4.9-5.1,0-6.8,4.8-6.8,11.1,0,5.7,1.5,11.3,7,11.3,4.2,0,5.3-3,5.8-5.1H89.5Z"/><path class="a" d="M121.3,57.2H105v6.7h18.2L122,71.7H94.9V35.8H122v7.8H105v5.8h16.3Z"/><path class="a" d="M128.1,35.8h10.5V63.9h16.9l-1.1,7.8H128.1V35.8Z"/><path class="a" d="M169.8,35.8v22c0,5.1,2.5,6.9,5.7,6.9,3.4,0,5.4-2.1,5.4-6.9v-22h10.5v21c0,11.9-7,15.5-16.2,15.5-9.5,0-16-3.8-16-15.5v-21h10.6Z"/><path class="a" d="M198.4,35.8H209V63.9h16.9l-1.1,7.8H198.5V35.8Z"/><path class="a" d="M238.9,64.7l-2.1,7H226.6L238,35.8h13.6l11.8,35.8h-11l-2.2-7H238.9Zm9.4-7.8c-1.7-5.6-3.1-10.6-3.9-14.1h-.1c-.8,3.9-2.2,9-3.7,14.1Z"/><path class="a" d="M277.5,58.1V71.6H267.3V35.8H285c8.4,0,12.5,4.5,12.5,9.9a8.694,8.694,0,0,1-5.4,8.5c2.3.8,4.7,3.2,4.7,9.2V65a33.871,33.871,0,0,0,.5,6.7h-10c-.6-1.5-.8-4.1-.8-7.8V63c0-3.1-.7-4.8-5.4-4.8h-3.6Zm0-7.3h4.9c3.5,0,4.8-1.5,4.8-3.9s-1.5-3.8-4.7-3.8h-4.9v7.7Z"/></g></g></svg>