<svg xmlns="http://www.w3.org/2000/svg" xmlns:xlink="http://www.w3.org/1999/xlink" width="20.139" height="20.061" viewBox="0 0 20.139 20.061"><defs><style>.a{fill:#fff;}.b{clip-path:url(#a);}</style><clipPath id="a"><rect class="a" width="20.139" height="20.061"/></clipPath></defs><g class="b"><path class="a" d="M17.685,2.451A8.365,8.365,0,0,0,4.454,12.42L.686,16.188a2.269,2.269,0,0,0,0,3.2,2.222,2.222,0,0,0,1.6.672A2.264,2.264,0,0,0,3.9,19.4l3.759-3.759A8.36,8.36,0,0,0,17.685,2.451ZM16.2,12.8A6.266,6.266,0,1,1,7.341,3.934a6.254,6.254,0,0,1,8.862,0,6.275,6.275,0,0,1,0,8.862Zm0,0" transform="translate(-0.023)"/></g></svg>